<?xml version="1.0" encoding="UTF-8"?>
<svg width="1528px" height="1528px" viewBox="0 0 1528 1528" version="1.1" xmlns="http://www.w3.org/2000/svg" xmlns:xlink="http://www.w3.org/1999/xlink">
    <title>leander.xyz logo w/ outline</title>
    <desc>Created with Sketch.</desc>
    <g id="Tilted" stroke="none" stroke-width="1" fill="none" fill-rule="evenodd">
        <g id="Logo" transform="translate(764.000000, 764.000000) rotate(45.000000) translate(-764.000000, -764.000000) translate(224.000000, 224.000000)">
            <polygon id="outline" fill="#0F0F0F" points="1.38139315e-12 1 1.38139315e-12 1079 1079.95832 1079 1080 757.076915 984.713782 663.080894 1080 663.080894 1079.95832 1 311.526438 1 311.526438 768.038462 560.747589 768.038462 560.747589 249.769231 830.737169 249.769231 830.737169 415.615385 623.052877 415.615385 623.052877 650.745793 802.191893 830.230769 249.221151 830.230769 249.221151 1"></polygon>
            <polygon id="r-path" fill="#FEFEFE" points="332.307692 20 332.307692 745.2 539.928505 745.2 539.928505 227.2 851.359725 227.2 851.359725 434.4 643.738912 434.4 643.738912 641.6 1058.98054 1056 1058.98054 765.92 934.40805 641.6 1058.98054 641.6 1058.98054 20"></polygon>
            <polygon id="l-path" fill="#4DCCB0" points="22.0203892 20 22.0203892 1056 1059.98146 1056 852.389249 848.8 229.612604 848.8 229.612604 20"></polygon>
        </g>
    </g>
</svg>