<?xml version="1.0" standalone="no"?>
<!DOCTYPE svg PUBLIC "-//W3C//DTD SVG 20010904//EN"
 "http://www.w3.org/TR/2001/REC-SVG-20010904/DTD/svg10.dtd">
<svg version="1.0" xmlns="http://www.w3.org/2000/svg"
 width="820.000000pt" height="820.000000pt" viewBox="0 0 820.000000 820.000000"
 preserveAspectRatio="xMidYMid meet">
<metadata>
Created by potrace 1.11, written by Peter Selinger 2001-2013
</metadata>
<g transform="translate(0.000000,820.000000) scale(0.100000,-0.100000)"
fill="#000000" stroke="none">
<path d="M3407 6084 c-2 -2 -33 -6 -68 -8 -113 -6 -302 -27 -382 -42 -42 -8
-81 -13 -85 -10 -10 6 -249 -42 -272 -54 -10 -5 -78 -25 -152 -44 -74 -19
-160 -46 -189 -60 -30 -13 -68 -28 -84 -32 -17 -4 -68 -25 -113 -46 -46 -21
-90 -38 -98 -38 -7 0 -30 -10 -51 -22 -21 -12 -50 -27 -64 -35 -15 -7 -32 -20
-39 -28 -6 -7 -24 -16 -40 -20 -15 -3 -43 -23 -61 -44 -34 -37 -37 -38 -184
-65 -171 -31 -283 -58 -370 -87 -33 -11 -91 -29 -129 -40 -38 -11 -82 -31 -98
-44 -16 -14 -38 -25 -48 -25 -10 0 -33 -12 -50 -27 -18 -15 -46 -34 -63 -42
-17 -9 -44 -33 -61 -54 -28 -36 -30 -42 -30 -135 -1 -53 5 -124 12 -157 21
-97 41 -196 53 -259 11 -57 10 -60 -12 -78 -13 -11 -47 -30 -75 -43 -27 -13
-64 -35 -81 -49 -35 -30 -76 -116 -72 -154 2 -15 0 -33 -5 -40 -8 -14 13 -156
23 -147 3 3 27 -56 53 -131 26 -75 55 -153 64 -173 25 -56 31 -73 44 -121 21
-78 38 -103 65 -96 18 5 43 -6 97 -39 39 -24 115 -59 167 -76 53 -18 128 -49
167 -70 39 -22 84 -39 100 -39 16 0 49 -10 74 -21 25 -12 122 -36 217 -54 114
-21 183 -40 207 -55 22 -13 86 -31 163 -46 71 -14 187 -38 258 -54 72 -16 148
-32 170 -35 22 -4 69 -15 105 -25 36 -10 103 -26 150 -35 47 -9 121 -30 166
-46 44 -16 88 -29 98 -29 9 0 38 -10 64 -21 26 -12 76 -26 112 -31 36 -6 103
-21 150 -33 47 -13 92 -25 100 -27 8 -1 17 -6 20 -9 8 -10 137 -50 152 -48 7
1 26 -3 41 -9 16 -7 34 -12 42 -12 8 0 16 -4 19 -9 5 -8 124 -40 170 -46 66
-8 152 -28 157 -36 3 -5 21 -11 40 -13 19 -2 41 -6 49 -9 41 -16 325 -68 343
-63 12 3 26 2 31 -3 6 -4 45 -14 86 -21 41 -7 102 -19 135 -27 33 -7 110 -16
170 -19 130 -6 165 -12 146 -23 -8 -5 9 -11 44 -16 44 -5 60 -3 66 7 7 11 12
6 11 -12 0 -3 29 -6 65 -8 37 -1 72 -7 79 -13 13 -11 134 -21 257 -23 31 -1
57 -3 57 -6 0 -3 60 -7 132 -9 73 -2 143 -7 156 -12 32 -12 381 -11 538 1 217
18 455 74 488 114 6 7 40 21 76 30 72 20 134 52 178 94 31 28 42 76 47 197 3
65 13 183 27 320 10 90 16 113 32 126 144 115 274 263 319 361 14 32 34 66 44
77 10 11 31 52 47 93 29 73 29 75 38 377 l9 304 28 56 c16 31 34 73 41 95 l12
38 -72 73 -73 73 7 74 c16 184 19 339 6 397 -15 71 -39 98 -130 142 -36 17
-77 40 -91 50 -15 10 -63 25 -108 33 -45 8 -90 21 -101 31 -21 19 -100 41
-216 60 -45 7 -99 18 -120 25 -22 6 -84 17 -139 25 -55 7 -118 18 -140 24 -22
6 -94 18 -160 26 -66 9 -136 20 -155 25 -20 5 -56 12 -80 15 -25 3 -58 10 -75
15 -31 10 -54 12 -210 25 -49 4 -109 14 -132 22 -25 9 -55 13 -74 9 -19 -4
-43 0 -63 9 -19 9 -71 16 -136 19 -58 1 -134 11 -170 21 -45 12 -86 16 -137
13 -52 -4 -78 -1 -93 9 -11 8 -42 13 -77 13 -32 -1 -82 5 -112 13 -29 8 -61
13 -71 10 -9 -3 -47 3 -84 12 -37 9 -110 19 -164 21 -185 7 -385 23 -416 33
-37 11 -699 35 -709 25z"/>
<path d="M7601 3894 c0 -11 3 -14 6 -6 3 7 2 16 -1 19 -3 4 -6 -2 -5 -13z"/>
</g>
</svg>
