<?xml version="1.0" standalone="no"?>
<!DOCTYPE svg PUBLIC "-//W3C//DTD SVG 20010904//EN"
 "http://www.w3.org/TR/2001/REC-SVG-20010904/DTD/svg10.dtd">
<svg version="1.0" xmlns="http://www.w3.org/2000/svg"
 width="400.000000pt" height="400.000000pt" viewBox="0 0 400.000000 400.000000"
 preserveAspectRatio="xMidYMid meet">
<metadata>
Created by potrace 1.11, written by Peter Selinger 2001-2013
</metadata>
<g transform="translate(0.000000,400.000000) scale(0.100000,-0.100000)"
fill="#000000" stroke="none">
<path d="M1961 3788 c-49 -117 -378 -888 -730 -1713 l-641 -1499 28 -29 c46
-48 225 -184 328 -248 503 -317 1151 -387 1724 -187 552 193 1025 666 1218
1218 173 497 145 1054 -77 1525 -220 466 -625 840 -1106 1020 -182 68 -457
125 -605 125 l-48 0 -91 -212z"/>
<path d="M1024 3749 c-176 -102 -305 -200 -445 -341 -376 -379 -579 -872 -579
-1408 0 -455 142 -869 424 -1234 l61 -79 11 134 c6 74 18 165 27 202 10 37 20
100 23 140 4 40 13 81 20 92 8 11 14 33 14 50 0 17 5 36 11 42 6 6 15 62 20
124 5 63 14 148 20 189 6 41 15 159 19 262 4 103 12 193 17 200 10 14 28 172
38 343 4 55 15 132 25 170 10 39 23 113 29 166 13 114 47 294 63 329 6 14 15
43 19 65 14 70 31 129 49 170 10 22 23 58 30 80 23 73 63 146 102 188 21 23
38 47 38 53 0 7 3 14 8 16 10 4 55 89 50 94 -3 2 -45 -19 -94 -47z"/>
</g>
</svg>
