<?xml version="1.0" standalone="no"?>
<!DOCTYPE svg PUBLIC "-//W3C//DTD SVG 20010904//EN"
 "http://www.w3.org/TR/2001/REC-SVG-20010904/DTD/svg10.dtd">
<svg version="1.0" xmlns="http://www.w3.org/2000/svg"
 width="700.000000pt" height="700.000000pt" viewBox="0 0 700.000000 700.000000"
 preserveAspectRatio="xMidYMid meet">
<metadata>
Created by potrace 1.11, written by Peter Selinger 2001-2013
</metadata>
<g transform="translate(0.000000,700.000000) scale(0.100000,-0.100000)"
fill="#000000" stroke="none">
<path d="M1751 5245 c-1494 -1494 -1742 -1746 -1731 -1759 6 -9 793 -797 1748
-1751 l1735 -1735 106 104 c58 57 158 155 221 216 63 61 229 223 369 358 140
136 264 257 275 270 20 23 21 37 26 398 l5 374 197 -194 198 -194 119 121 c65
67 151 156 191 197 90 93 527 545 716 740 78 80 172 177 209 215 37 39 176
182 309 319 132 137 263 272 290 300 27 28 97 101 157 162 l108 112 -1221
1221 c-672 671 -1224 1221 -1227 1221 -3 0 -555 -549 -1227 -1221 l-1221
-1221 350 -350 350 -350 871 871 c479 479 874 871 878 871 5 0 987 -977 1030
-1026 16 -18 3 -33 -332 -367 l-348 -349 -350 350 -350 350 -351 -351 -350
-351 2 -693 c1 -381 -1 -693 -5 -693 -8 0 -2088 2080 -2088 2088 0 4 628 635
1396 1403 l1395 1395 -347 347 c-191 191 -349 347 -353 347 -3 0 -791 -785
-1750 -1745z"/>
</g>
</svg>
